<?xml version="1.0" standalone="no"?>
<!DOCTYPE svg PUBLIC "-//W3C//DTD SVG 20010904//EN"
 "http://www.w3.org/TR/2001/REC-SVG-20010904/DTD/svg10.dtd">
<svg version="1.0" xmlns="http://www.w3.org/2000/svg"
 width="300.000000pt" height="202.000000pt" viewBox="0 0 300.000000 202.000000"
 preserveAspectRatio="xMidYMid meet">
<metadata>
Created by potrace 1.10, written by Peter Selinger 2001-2011
</metadata>
<g transform="translate(0.000000,202.000000) scale(0.100000,-0.100000)"
fill="#000000" stroke="none">
<path d="M0 1990 c0 -20 4 -20 1490 -20 820 0 1495 -2 1500 -5 14 -9 12 19 -2
33 -9 9 -356 12 -1500 12 -1484 0 -1488 0 -1488 -20z"/>
<path d="M1305 1738 c-272 -51 -436 -182 -515 -413 -26 -77 -39 -152 -44 -267
-6 -126 22 -238 103 -403 68 -138 125 -217 196 -270 105 -79 195 -105 375
-110 160 -5 230 10 373 78 294 140 437 366 424 672 -4 102 -7 117 -44 203 -77
175 -169 304 -277 386 -68 51 -182 106 -259 122 -70 15 -257 16 -332 2z m349
-44 c199 -52 353 -196 467 -438 72 -154 84 -280 43 -441 -49 -191 -204 -355
-418 -444 -132 -55 -185 -64 -336 -58 -208 8 -305 47 -409 163 -56 64 -135
210 -182 339 -31 83 -33 99 -33 215 -1 152 19 251 74 365 66 136 167 221 327
274 153 52 329 61 467 25z"/>
<path d="M1450 1503 c-33 -23 -40 -33 -40 -64 0 -17 7 -29 18 -33 9 -3 25 -11
34 -18 28 -20 72 1 76 36 2 16 -2 34 -8 40 -9 8 -10 4 -5 -15 4 -18 1 -31 -10
-43 -22 -21 -43 -17 -62 11 -14 20 -13 24 11 48 17 17 21 25 10 25 -8 0 -23
-15 -34 -32 -11 -18 -20 -28 -20 -22 0 23 42 64 66 64 27 0 64 -32 64 -55 0
-8 5 -15 10 -15 17 0 11 28 -12 54 -31 34 -67 41 -98 19z"/>
<path d="M1473 1463 c-18 -7 -16 -52 3 -60 23 -9 51 23 38 44 -12 19 -23 24
-41 16z"/>
<path d="M1525 1384 c-13 -10 -32 -14 -52 -10 -38 6 -45 -9 -9 -18 29 -7 66 5
85 28 17 20 2 20 -24 0z"/>
<path d="M1316 1183 c-26 -4 -28 -7 -21 -36 30 -139 36 -205 35 -372 -1 -99
-5 -199 -9 -222 l-8 -43 74 0 c49 0 72 4 68 10 -4 6 -12 77 -19 158 -12 131
-12 150 3 175 8 15 18 27 22 27 4 0 28 -61 55 -135 27 -74 54 -135 61 -135 7
0 35 5 62 11 l51 11 -38 56 c-96 143 -144 261 -118 291 26 31 31 45 12 38 -10
-4 -15 -3 -11 3 4 6 12 9 19 8 12 -3 120 102 113 109 -2 1 -30 -1 -62 -5 -58
-7 -60 -8 -110 -72 -27 -36 -57 -76 -65 -89 -14 -21 -15 -15 -13 85 2 60 5
114 8 121 4 13 -43 16 -109 6z m64 -67 c0 -33 -16 -42 -29 -17 -16 29 -13 41
9 41 15 0 20 -7 20 -24z m76 -166 c19 12 38 20 41 16 4 -3 1 -6 -5 -6 -7 0 -9
-11 -6 -29 5 -26 4 -29 -13 -25 -12 4 -32 -5 -51 -21 -17 -15 -35 -24 -40 -21
-5 3 -10 30 -11 61 l-2 55 26 -26 25 -25 36 21z m-68 -227 c3 -57 13 -97 26
-105 8 -6 7 -8 -1 -8 -7 0 -13 -11 -13 -25 0 -16 -6 -25 -16 -25 -13 0 -15 15
-13 93 1 81 4 107 13 107 1 0 3 -17 4 -37z"/>
</g>
</svg>
